<?xml version="1.0" encoding="UTF-8"?>
<svg id="Artboard_1" data-name="Artboard 1" xmlns="http://www.w3.org/2000/svg" viewBox="0 0 22.32 32">
  <defs>
    <style>
      .cls-1 {
        fill: #fff;
        stroke-width: 0px;
      }
    </style>
  </defs>
  <polygon class="cls-1" points="2.97 12.02 0 12.02 0 17.09 0 21.7 2.97 21.7 2.97 12.02"/>
  <polygon class="cls-1" points="6.4 12.02 6.4 17.09 6.4 21.7 9.44 21.7 9.44 12.02 6.4 12.02"/>
  <polygon class="cls-1" points="12.88 12.02 12.88 17.09 12.88 21.7 15.84 21.7 15.84 12.02 12.88 12.02"/>
  <polygon class="cls-1" points="0 10.15 11.16 10.15 22.32 10.15 22.32 7.41 0 7.41 0 10.15"/>
  <polygon class="cls-1" points="11.16 0 0 3.67 0 6.56 11.16 2.81 22.32 6.56 22.32 3.67 11.16 0"/>
  <path class="cls-1" d="m22.32,21.46c-.08.16-1.17,2.03-8.27,2.03h-5.78c-7.34.08-8.12,1.01-8.27,1.09v2.81c.16-.08.94-1.01,8.27-1.09h5.78c7.1,0,8.2-1.87,8.27-2.03,0,0,0-2.81,0-2.81Z"/>
  <path class="cls-1" d="m22.32,26.07c-.08.16-1.17,2.03-8.27,2.03h-5.78c-7.34.08-8.12,1.01-8.27,1.09v2.81c.16-.08.94-1.01,8.27-1.09h5.78c7.1,0,8.2-1.87,8.27-2.03v-2.81Z"/>
  <path class="cls-1" d="m19.28,12.02v9.21c2.42-.55,2.97-1.4,2.97-1.56v-7.65s-2.97,0-2.97,0Z"/>
</svg>