<?xml version="1.0" encoding="UTF-8"?>
<svg id="Artboard_1" data-name="Artboard 1" xmlns="http://www.w3.org/2000/svg" viewBox="0 0 400 42.7">
  <defs>
    <style>
      .cls-1 {
        fill: #fff;
        stroke-width: 0px;
      }
    </style>
  </defs>
  <g>
    <path class="cls-1" d="m46,28.7v1.5h-4.5v3.6h4v1.5h-4v4.3h-2v-11h6.5v.1Z"/>
    <path class="cls-1" d="m50.6,39.8c-2.5,0-3.9-1.4-3.9-4.2s1.4-4.2,3.9-4.2,3.9,1.4,3.9,4.2c.1,2.8-1.3,4.2-3.9,4.2Zm1.9-4.2c0-1.8-.6-2.8-1.9-2.8s-1.9,1.1-1.9,2.8c0,1.8.6,2.8,1.9,2.8,1.4.1,1.9-1.1,1.9-2.8Z"/>
    <path class="cls-1" d="m61.9,39.6l-.4-1.3c-.2.9-1,1.5-2.4,1.5-1.1,0-1.8-.4-2.2-1-.5-.7-.5-1.5-.5-2.5v-4.7h1.9v4.8c0,.5,0,.9.3,1.3s.7.6,1.3.6c1.3,0,1.5-1.1,1.5-1.8v-4.9h1.9v8s-1.4,0-1.4,0Z"/>
    <path class="cls-1" d="m67.2,31.6l.4,1.4c.3-.9,1-1.5,2.4-1.5,1.2,0,1.9.5,2.3,1.1.5.7.5,1.5.5,2.4v4.7h-1.9v-4.8c0-.5,0-.9-.3-1.3-.3-.4-.6-.6-1.3-.6-1.4,0-1.6,1.1-1.6,1.8v4.9h-1.9v-8h1.4v-.1Z"/>
    <path class="cls-1" d="m82.1,28.3v11.4h-1.5l-.3-1.4c-.2.9-1.1,1.5-2.4,1.5-2.2,0-3.4-1.7-3.4-4.1s1.2-4.2,3.5-4.2c1.2,0,1.9.4,2.2,1.4v-4.6h1.9Zm-5.6,7.3c0,1.6.5,2.7,1.9,2.7s1.9-1.2,1.9-2.7c0-1.6-.5-2.7-1.9-2.7s-1.9,1.1-1.9,2.7Z"/>
    <path class="cls-1" d="m86.6,29.3c0,.6-.5,1.1-1.2,1.1s-1.2-.5-1.2-1.1.5-1.1,1.2-1.1,1.2.5,1.2,1.1Zm-.2,2.3v8h-1.9v-8s1.9,0,1.9,0Z"/>
    <path class="cls-1" d="m90.2,31.6l.4,1.4c.3-.9,1-1.5,2.4-1.5,1.2,0,1.9.5,2.3,1.1.5.7.5,1.5.5,2.4v4.7h-1.9v-4.8c0-.5,0-.9-.3-1.3-.3-.4-.6-.6-1.3-.6-1.4,0-1.6,1.1-1.6,1.8v4.9h-1.9v-8h1.4v-.1Z"/>
    <path class="cls-1" d="m101.1,36.6c-.4,0-.8,0-1.1-.1-.2.1-.4.3-.4.7,0,.6.6.6,1.1.6h1.4c1,0,3.2,0,3.2,2.2,0,1.8-1.4,2.7-4.3,2.7-2.6,0-3.7-.7-3.7-1.9,0-1.4,1.5-1.6,1.6-1.6,0,0-1-.4-1-1.4s1-1.4,1.5-1.5c-.9-.4-1.4-1.2-1.4-2.2,0-1.6,1.3-2.6,3.3-2.6,1,0,1.8.2,2.4.7.4-1,1.2-1,1.7-1h.2v1.6s-.3-.1-.6-.1c-.4,0-.6.1-.7.1.2.4.4.8.4,1.3-.3,1.5-1.6,2.5-3.6,2.5Zm-1.6,2.7s-.6.3-.6,1,.6,1,2,1c1.5,0,2.4-.4,2.4-1.1,0-.8-1-.8-1.5-.8h-2.3v-.1Zm2.9-5.3c0-.8-.5-1.3-1.3-1.3s-1.3.4-1.3,1.3c0,.8.5,1.3,1.3,1.3s1.3-.5,1.3-1.3Z"/>
    <path class="cls-1" d="m113.5,28.7l3.5,8.4,3.4-8.4h2.5v11h-1.9v-8.6l-3.2,8h-1.8l-3.2-8v8.6h-1.8v-11h2.5Z"/>
    <path class="cls-1" d="m131.6,39.4s-1.1.4-2.5.4c-1.5,0-2.5-.4-3.1-1-.7-.7-1.1-1.8-1.1-3.1,0-2.6,1.3-4.3,3.7-4.3,1.3,0,2.3.5,2.9,1.4s.6,2.1.6,3.4h-5.2c0,1.4.8,2.2,2.3,2.2,1.1,0,2.3-.4,2.3-.4h.1v1.4h0Zm-1.5-4.5c0-1.3-.4-2.1-1.5-2.1s-1.6.8-1.7,2.1h3.2Z"/>
    <path class="cls-1" d="m135.4,31.6l.4,1.4c.2-.9.9-1.5,2.3-1.5s2.1.6,2.4,1.6c.4-1.1,1.1-1.6,2.3-1.6,1.3,0,1.9.6,2.2,1.1.4.7.4,1.5.4,2.4v4.7h-1.9v-4.8c0-.5,0-.9-.2-1.3-.2-.3-.6-.6-1.2-.6-1.3,0-1.5,1.1-1.5,1.8v4.9h-1.9v-4.8c0-.5,0-.9-.2-1.3-.2-.3-.6-.6-1.2-.6-1.3,0-1.5,1.1-1.5,1.8v4.9h-1.9v-8h1.5v-.1Z"/>
    <path class="cls-1" d="m149.7,28.3v4.7c.3-.9,1-1.5,2.4-1.5,2.1,0,3.4,1.5,3.4,4.1s-1.3,4.2-3.6,4.2c-1.2,0-2-.4-2.4-1.4l-.5,1.2h-1.2v-11.3h1.9Zm0,7.4c0,1.6.5,2.8,1.9,2.8s1.9-1.2,1.9-2.8-.5-2.7-1.9-2.7c-1.4-.1-1.9,1-1.9,2.7Z"/>
    <path class="cls-1" d="m163.6,39.4s-1.1.4-2.5.4c-1.5,0-2.5-.4-3.1-1-.7-.7-1.1-1.8-1.1-3.1,0-2.6,1.3-4.3,3.7-4.3,1.3,0,2.3.5,2.9,1.4s.6,2.1.6,3.4h-5.2c0,1.4.8,2.2,2.3,2.2,1.1,0,2.3-.4,2.3-.4h.1v1.4Zm-1.5-4.5c0-1.3-.4-2.1-1.5-2.1s-1.6.8-1.7,2.1h3.2Z"/>
    <path class="cls-1" d="m170.5,33.3s-.4-.1-.8-.1c-1.7,0-1.7,1.3-1.7,1.9v4.5h-2v-8h1.5l.4,1.6c.3-1.3,1.3-1.7,2.5-1.7h.2v1.8h-.1Z"/>
    <path class="cls-1" d="m172.5,37.7l-1.1,4.1h-1.4l.6-4.1h1.9Z"/>
    <path class="cls-1" d="m181.2,28.7l3.5,8.4,3.4-8.4h2.5v11h-1.9v-8.6l-3.2,8h-1.7l-3.2-8v8.6h-1.7v-11h2.3Z"/>
    <path class="cls-1" d="m193.2,31.8s1-.4,2.6-.4c1.2,0,2.3.2,2.8,1,.4.6.4,1.4.4,2.2v2.7c0,.3,0,.9.7.9.2,0,.4-.1.4-.1v1.3s-.4.1-1,.1c-1,0-1.7-.4-1.8-1.4-.3.9-1.2,1.5-2.4,1.5-1.6,0-2.6-1-2.6-2.4,0-1.7,1.4-2.6,4-2.6h.8c0-.7,0-1-.2-1.3s-.6-.5-1.4-.5c-1.2,0-2.2.4-2.2.4h-.1v-1.4Zm2.3,6.5c.6,0,1.1-.3,1.4-.8.3-.5.3-1.1.3-1.4v-.2h-.4c-.8,0-2.3,0-2.3,1.3-.1.7.3,1.1,1,1.1Z"/>
    <path class="cls-1" d="m206.5,33.3h-.1s-1-.4-1.9-.4c-.8,0-1.2.3-1.2.7,0,1.2,3.6.9,3.6,3.6,0,1.7-1.4,2.5-3.3,2.5-1.4,0-2.3-.4-2.3-.4v-1.5h.1s1.2.5,2.2.5c.9,0,1.3-.4,1.3-.8,0-1.4-3.6-1-3.6-3.6,0-1.5,1.1-2.4,3.2-2.4,1.1,0,2,.3,2,.3v1.5Z"/>
    <path class="cls-1" d="m213.3,33.3h-.1s-1-.4-1.9-.4c-.8,0-1.2.3-1.2.7,0,1.2,3.6.9,3.6,3.6,0,1.7-1.4,2.5-3.3,2.5-1.4,0-2.3-.4-2.3-.4v-1.5h.1s1.2.5,2.2.5c.9,0,1.3-.4,1.3-.8,0-1.4-3.6-1-3.6-3.6,0-1.5,1.1-2.4,3.2-2.4,1.1,0,2,.3,2,.3v1.5Z"/>
    <path class="cls-1" d="m228.1,33.8v5.4s-1.4.6-3.4.6c-3.4,0-5.7-1.8-5.7-5.5,0-3.9,2.4-5.7,5.9-5.7,1.6,0,2.8.4,2.8.4v1.5h-.1s-1.1-.5-2.6-.5c-2.4,0-3.9,1.3-3.9,4.1s1.5,4.2,3.6,4.2c.8,0,1.4-.2,1.4-.2v-2.8h-2v-1.5h4Z"/>
    <path class="cls-1" d="m236.5,39.4s-1.1.4-2.5.4c-1.5,0-2.5-.4-3.1-1-.7-.7-1.1-1.8-1.1-3.1,0-2.6,1.3-4.3,3.7-4.3,1.3,0,2.3.5,2.9,1.4.6.9.6,2.1.6,3.4h-5.2c0,1.4.8,2.2,2.3,2.2,1.1,0,2.3-.4,2.3-.4h.1v1.4Zm-1.5-4.5c0-1.3-.4-2.1-1.5-2.1s-1.6.8-1.7,2.1h3.2Z"/>
    <path class="cls-1" d="m240.4,31.6l.4,1.4c.3-.9,1-1.5,2.4-1.5,1.2,0,1.9.5,2.3,1.1.5.7.5,1.5.5,2.4v4.7h-2v-4.8c0-.5,0-.9-.3-1.3-.3-.4-.6-.6-1.3-.6-1.4,0-1.6,1.1-1.6,1.8v4.9h-1.9v-8h1.5v-.1Z"/>
    <path class="cls-1" d="m254.4,39.4s-1.1.4-2.5.4c-1.5,0-2.5-.4-3.1-1-.7-.7-1.1-1.8-1.1-3.1,0-2.6,1.3-4.3,3.7-4.3,1.3,0,2.3.5,2.9,1.4.6.9.6,2.1.6,3.4h-5.2c0,1.4.8,2.2,2.3,2.2,1.1,0,2.3-.4,2.3-.4h.1v1.4Zm-1.5-4.5c0-1.3-.4-2.1-1.5-2.1s-1.6.8-1.7,2.1h3.2Z"/>
    <path class="cls-1" d="m261.3,33.3s-.4-.1-.8-.1c-1.7,0-1.7,1.3-1.7,1.9v4.5h-1.9v-8h1.5l.4,1.6c.3-1.3,1.3-1.7,2.5-1.7h.2v1.8h-.2Z"/>
    <path class="cls-1" d="m262.7,31.8s1-.4,2.6-.4c1.2,0,2.3.2,2.8,1,.4.6.4,1.4.4,2.2v2.7c0,.3,0,.9.7.9.2,0,.4-.1.4-.1v1.3s-.4.1-1,.1c-1,0-1.7-.4-1.8-1.4-.3.9-1.2,1.5-2.4,1.5-1.6,0-2.6-1-2.6-2.4,0-1.7,1.4-2.6,4-2.6h.8c0-.7,0-1-.2-1.3s-.6-.5-1.4-.5c-1.2,0-2.2.4-2.2.4h-.1v-1.4h0Zm2.4,6.5c.6,0,1.1-.3,1.4-.8s.3-1.1.3-1.4v-.2h-.4c-.8,0-2.3,0-2.3,1.3-.2.7.2,1.1,1,1.1Z"/>
    <path class="cls-1" d="m273.1,28.3v11.4h-1.9v-11.4h1.9Z"/>
    <path class="cls-1" d="m283.1,28.7c.8,0,1.8,0,2.6.5.7.4,1.2,1.1,1.2,2.2,0,2.2-1.9,2.4-1.9,2.4,0,0,2.6.1,2.6,2.7,0,1.3-.6,2-1.4,2.5-1,.6-2.1.6-3,.6h-3.6v-11h3.5v.1Zm-1.6,4.5h1.3c.4,0,.9,0,1.3-.2s.7-.6.7-1.3-.3-1.1-.7-1.3c-.4-.2-.9-.2-1.3-.2h-1.3v3Zm0,5h1.6c.5,0,1.1,0,1.6-.3s.8-.8.8-1.5-.3-1.2-.8-1.5c-.6-.3-1.1-.3-1.6-.3h-1.6v3.6Z"/>
    <path class="cls-1" d="m293.7,33.3s-.4-.1-.8-.1c-1.7,0-1.7,1.3-1.7,1.9v4.5h-1.9v-8h1.5l.4,1.6c.3-1.3,1.3-1.7,2.5-1.7h.2v1.8h-.2Z"/>
    <path class="cls-1" d="m297.3,29.3c0,.6-.5,1.1-1.2,1.1s-1.2-.5-1.2-1.1.5-1.1,1.2-1.1,1.2.5,1.2,1.1Zm-.2,2.3v8h-1.9v-8s1.9,0,1.9,0Z"/>
    <path class="cls-1" d="m302.6,36.6c-.4,0-.8,0-1.1-.1-.2.1-.4.3-.4.7,0,.6.6.6,1.1.6h1.4c1,0,3.2,0,3.2,2.2,0,1.8-1.4,2.7-4.3,2.7-2.6,0-3.7-.7-3.7-1.9,0-1.4,1.5-1.6,1.6-1.6,0,0-1-.4-1-1.4s1-1.4,1.5-1.5c-.9-.4-1.4-1.2-1.4-2.2,0-1.6,1.3-2.6,3.3-2.6,1,0,1.8.2,2.4.7.4-1,1.2-1,1.7-1h.2v1.6s-.3-.1-.6-.1c-.4,0-.6.1-.7.1.2.4.4.8.4,1.3-.3,1.5-1.6,2.5-3.6,2.5Zm-1.7,2.7s-.6.3-.6,1,.6,1,2,1c1.5,0,2.4-.4,2.4-1.1,0-.8-1-.8-1.5-.8h-2.3v-.1Zm3-5.3c0-.8-.5-1.3-1.3-1.3s-1.3.4-1.3,1.3c0,.8.5,1.3,1.3,1.3s1.3-.5,1.3-1.3Z"/>
    <path class="cls-1" d="m310.3,28.3v4.6c.3-.8.9-1.4,2.3-1.4,1.3,0,2,.5,2.3,1.1.5.7.5,1.5.5,2.4v4.7h-1.9v-4.8c0-.5,0-.9-.3-1.3-.3-.4-.6-.6-1.3-.6-1.4,0-1.6,1.1-1.6,1.8v4.9h-1.9v-11.4h1.9Z"/>
    <path class="cls-1" d="m317.8,31.8s1-.4,2.6-.4c1.2,0,2.3.2,2.8,1,.4.6.4,1.4.4,2.2v2.7c0,.3,0,.9.7.9.2,0,.4-.1.4-.1v1.3s-.4.1-1,.1c-1,0-1.7-.4-1.8-1.4-.3.9-1.2,1.5-2.4,1.5-1.6,0-2.6-1-2.6-2.4,0-1.7,1.4-2.6,4-2.6h.8c0-.7,0-1-.2-1.3s-.6-.5-1.4-.5c-1.2,0-2.2.4-2.2.4h-.1v-1.4h0Zm2.3,6.5c.6,0,1.1-.3,1.4-.8s.3-1.1.3-1.4v-.2h-.4c-.8,0-2.3,0-2.3,1.3-.1.7.2,1.1,1,1.1Z"/>
    <path class="cls-1" d="m327.7,31.6l.4,1.4c.2-.9.9-1.5,2.3-1.5s2.1.6,2.4,1.6c.4-1.1,1.1-1.6,2.3-1.6,1.3,0,1.9.6,2.2,1.1.4.7.4,1.5.4,2.4v4.7h-1.9v-4.8c0-.5,0-.9-.2-1.3-.2-.3-.6-.6-1.2-.6-1.3,0-1.5,1.1-1.5,1.8v4.9h-1.9v-4.8c0-.5,0-.9-.2-1.3-.2-.3-.6-.6-1.2-.6-1.3,0-1.5,1.1-1.5,1.8v4.9h-1.9v-8h1.5v-.1Z"/>
  </g>
  <g>
    <path class="cls-1" d="m45.4,1.2c1.4,0,3,0,4.3.8,1.1.7,2,1.8,2,3.7,0,3.6-3.2,4-3.2,4,0,0,4.3.2,4.3,4.5,0,2.1-1,3.4-2.3,4.2-1.6,1-3.5,1-5,1h-6V1.2h5.9Zm-2.7,7.6h2.3c.7,0,1.5,0,2.2-.4s1.2-1.1,1.2-2.2-.5-1.8-1.2-2.2-1.5-.4-2.2-.4h-2.2v5.2h-.1Zm0,8.4h2.6c.8,0,1.8,0,2.7-.5s1.3-1.3,1.3-2.4-.3-2-1.2-2.5-1.9-.5-2.7-.5h-2.6v5.9h-.1Z"/>
    <path class="cls-1" d="m62.7,9s-.7-.1-1.4-.1c-2.9,0-2.9,2.1-2.9,3.2v7.5h-3.2V6.1h2.4l.6,2.6c.5-2.2,2.1-2.8,4.1-2.8h.3v3.1h.1Z"/>
    <path class="cls-1" d="m68.2,2.3c0,1.1-.8,1.9-1.9,1.9s-1.9-.8-1.9-1.9.8-1.9,1.9-1.9c1.1,0,1.9.9,1.9,1.9Zm-.4,3.8v13.4h-3.2V6.1h3.2Z"/>
    <path class="cls-1" d="m76.5,14.5c-.7,0-1.3,0-1.8-.2-.3.2-.7.5-.7,1.1,0,1,1.1,1,1.8,1h2.2c1.7,0,5.3,0,5.3,3.6,0,2.9-2.3,4.5-7.2,4.5-4.3,0-6.2-1.2-6.2-3.2,0-2.4,2.5-2.7,2.6-2.7-.1,0-1.7-.6-1.7-2.3s1.7-2.3,2.5-2.5c-1.5-.7-2.3-2-2.3-3.7,0-2.6,2.1-4.3,5.5-4.3,1.7,0,3,.4,4,1.2.6-1.7,2-1.7,2.8-1.7h.3v2.6s-.5-.1-1.1-.1-.9.1-1.1.2c.4.6.6,1.3.6,2.1,0,2.7-2.2,4.4-5.5,4.4Zm-2.8,4.5s-.9.5-.9,1.6c0,1.2,1,1.7,3.4,1.7,2.6,0,3.9-.6,3.9-1.9,0-1.4-1.7-1.4-2.4-1.4,0,0-4,0-4,0Zm5-8.9c0-1.4-.8-2.1-2.2-2.1s-2.2.7-2.2,2.1.8,2.1,2.2,2.1,2.2-.7,2.2-2.1Z"/>
    <path class="cls-1" d="m88.8.5v7.7c.4-1.4,1.5-2.4,3.8-2.4,2.1,0,3.3.8,3.9,1.8.8,1.1.8,2.4.8,4v7.9h-3.2v-7.9c0-.8,0-1.6-.4-2.2-.4-.6-1.1-1-2.1-1-2.4,0-2.7,1.8-2.7,2.9v8.2h-3.2V.5h3.1Z"/>
    <path class="cls-1" d="m100.8,6.5s1.7-.6,4.3-.6c2,0,3.8.3,4.7,1.7.7,1,.7,2.4.7,3.6v4.6c0,.6,0,1.6,1.1,1.6.4,0,.7-.1.7-.1v2.2s-.7.2-1.7.2c-1.7,0-2.8-.6-3-2.4-.5,1.6-2,2.4-3.9,2.4-2.6,0-4.3-1.6-4.3-4,0-2.9,2.4-4.3,6.6-4.3h1.3c0-1.1,0-1.7-.4-2.2-.4-.6-1-.9-2.4-.9-1.9,0-3.6.7-3.6.7h-.2v-2.5h.1Zm3.9,10.8c.9,0,1.8-.4,2.3-1.3.4-.8.4-1.8.4-2.3v-.3h-.7c-1.4,0-3.8,0-3.8,2.1-.1,1.1.6,1.8,1.8,1.8Z"/>
    <path class="cls-1" d="m116.9,6.1l.6,2.3c.4-1.5,1.5-2.6,3.9-2.6s3.5,1,4.1,2.7c.6-1.8,1.9-2.7,3.9-2.7,2.1,0,3.2.9,3.8,1.8.7,1.1.7,2.4.7,4v7.9h-3.2v-7.9c0-.8,0-1.6-.4-2.2-.3-.5-.9-1-2-1-2.2,0-2.5,1.8-2.5,2.9v8.2h-3.2v-7.9c0-.8,0-1.6-.4-2.2-.3-.5-.9-1-2-1-2.2,0-2.5,1.8-2.5,2.9v8.2h-3.2V6.1h2.4Z"/>
    <path class="cls-1" d="m143.5,6.5s1.7-.6,4.3-.6c2,0,3.8.3,4.7,1.7.7,1,.7,2.4.7,3.6v4.6c0,.6,0,1.6,1.1,1.6.4,0,.7-.1.7-.1v2.2s-.7.2-1.7.2c-1.7,0-2.8-.6-3-2.4-.5,1.6-2,2.4-3.9,2.4-2.6,0-4.3-1.6-4.3-4,0-2.9,2.4-4.3,6.6-4.3h1.3c0-1.1,0-1.7-.4-2.2-.4-.6-1-.9-2.4-.9-1.9,0-3.6.7-3.6.7h-.2v-2.5h.1Zm3.8,10.8c.9,0,1.8-.4,2.3-1.3.4-.8.4-1.8.4-2.3v-.3h-.7c-1.4,0-3.8,0-3.8,2.1,0,1.1.6,1.8,1.8,1.8Z"/>
    <path class="cls-1" d="m159.6,6.1l.6,2.3c.4-1.6,1.7-2.6,4-2.6,2.1,0,3.2.8,3.9,1.8.8,1.1.8,2.4.8,4v7.9h-3.2v-7.9c0-.8,0-1.6-.4-2.2-.4-.6-1.1-1-2.1-1-2.4,0-2.7,1.8-2.7,2.9v8.2h-3.2V6.1h2.3Z"/>
    <path class="cls-1" d="m184,.5v19h-2.5l-.6-2.2c-.4,1.5-1.8,2.5-4,2.5-3.7,0-5.7-2.8-5.7-6.9s2-7.1,5.9-7.1c1.9,0,3.2.7,3.7,2.3V.5s3.2,0,3.2,0Zm-9.4,12.3c0,2.7.9,4.5,3.1,4.5s3.1-1.9,3.1-4.6-.8-4.4-3-4.4-3.2,1.9-3.2,4.5Z"/>
    <path class="cls-1" d="m195.6,1.2l3.6,14.2,3.7-13.8h3.3l3.7,13.8,3.6-14.2h2.8l-5,18.3h-3.3l-3.7-13.9-3.8,13.9h-3.3l-5-18.3s3.4,0,3.4,0Z"/>
    <path class="cls-1" d="m222.9,19.9c-4.1,0-6.5-2.4-6.5-7s2.4-7.1,6.6-7.1,6.5,2.4,6.5,7-2.4,7.1-6.6,7.1Zm3.2-7.1c0-3-1-4.7-3.1-4.7s-3.1,1.9-3.1,4.7c0,3,1,4.7,3.1,4.7,2.2.1,3.1-1.8,3.1-4.7Z"/>
    <path class="cls-1" d="m234.6,6.1l.6,2.3c.4-1.5,1.5-2.6,3.9-2.6s3.5,1,4.1,2.7c.6-1.8,1.9-2.7,3.9-2.7,2.1,0,3.2.9,3.8,1.8.7,1.1.7,2.4.7,4v7.9h-3.2v-7.9c0-.8,0-1.6-.4-2.2-.3-.5-.9-1-2-1-2.2,0-2.5,1.8-2.5,2.9v8.2h-3.2v-7.9c0-.8,0-1.6-.4-2.2-.3-.5-.9-1-2-1-2.2,0-2.5,1.8-2.5,2.9v8.2h-3.2V6.1h2.4Z"/>
    <path class="cls-1" d="m265.1,19.1s-1.8.6-4.2.6c-2.6,0-4.1-.7-5.1-1.7-1.2-1.2-1.8-2.9-1.8-5.1,0-4.4,2.2-7.1,6.2-7.1,2.2,0,3.8.8,4.8,2.3.9,1.5.9,3.5.9,5.6h-8.6c0,2.3,1.3,3.6,3.8,3.6,1.9,0,3.8-.7,3.8-.7h.2v2.5h0Zm-2.5-7.6c0-2.2-.7-3.5-2.5-3.5-1.9,0-2.6,1.3-2.8,3.5h5.3Z"/>
    <path class="cls-1" d="m271.1,6.1l.6,2.3c.4-1.6,1.7-2.6,4-2.6,2.1,0,3.2.8,3.9,1.8.8,1.1.8,2.4.8,4v7.9h-3.2v-7.9c0-.8,0-1.6-.4-2.2-.4-.6-1.1-1-2.1-1-2.4,0-2.7,1.8-2.7,2.9v8.2h-3.2V6.1h2.3Z"/>
    <path class="cls-1" d="m282.8,7.1l1-6.5h3l-1.8,6.5h-2.2Z"/>
    <path class="cls-1" d="m296.4,9h-.2s-1.7-.7-3.2-.7c-1.4,0-2,.5-2,1.2,0,2.1,6,1.5,6,6.1,0,2.8-2.3,4.1-5.5,4.1-2.3,0-3.8-.6-3.8-.6v-2.6h.2s2,.8,3.7.8c1.5,0,2.1-.6,2.1-1.4,0-2.4-6-1.7-6-6.1,0-2.4,1.9-4,5.3-4,1.9,0,3.3.5,3.3.5v2.7h.1Z"/>
    <path class="cls-1" d="m309.3,1.2v7.5h8.1V1.2h3.3v18.3h-3.3v-8.3h-8.1v8.3h-3.3V1.2h3.3Z"/>
    <path class="cls-1" d="m330,19.9c-4.1,0-6.5-2.4-6.5-7s2.4-7.1,6.6-7.1,6.5,2.4,6.5,7-2.4,7.1-6.6,7.1Zm3.2-7.1c0-3-1-4.7-3.1-4.7s-3.1,1.9-3.1,4.7c0,3,1,4.7,3.1,4.7,2.2.1,3.1-1.8,3.1-4.7Z"/>
    <path class="cls-1" d="m347.1,9h-.2s-1.7-.7-3.2-.7c-1.4,0-2,.5-2,1.2,0,2.1,6,1.5,6,6.1,0,2.8-2.3,4.1-5.5,4.1-2.3,0-3.8-.6-3.8-.6v-2.6h.2s2,.8,3.7.8c1.5,0,2.1-.6,2.1-1.4,0-2.4-6-1.7-6-6.1,0-2.4,1.9-4,5.3-4,1.9,0,3.3.5,3.3.5v2.7h.1Z"/>
    <path class="cls-1" d="m350.4,24.3V6.1h2.5l.6,2.2c.4-1.5,1.8-2.5,4-2.5,3.7,0,5.7,2.8,5.7,6.9s-2,7.1-5.9,7.1c-1.9,0-3.2-.7-3.7-2.3v6.8h-3.2Zm9.4-11.5c0-2.7-.9-4.5-3.1-4.5s-3.1,1.9-3.1,4.6.9,4.5,3.1,4.5,3.1-1.9,3.1-4.6Z"/>
    <path class="cls-1" d="m369.3,2.3c0,1.1-.8,1.9-1.9,1.9s-1.9-.8-1.9-1.9.8-1.9,1.9-1.9c1.2,0,1.9.9,1.9,1.9Zm-.3,3.8v13.4h-3.2V6.1h3.2Z"/>
    <path class="cls-1" d="m380.3,19.4s-1,.3-2.4.3c-1.9,0-3.2-.5-3.8-1.5-.6-.9-.6-2-.6-3.5v-6.1h-2.5v-2.3h2.4v-3.5l3.2-.9v4.4h3.7v2.3h-3.7v6c0,.9,0,1.5.3,2s.8.6,1.4.6c.9,0,1.8-.3,1.8-.3h.2v2.5Z"/>
    <path class="cls-1" d="m383.2,6.5s1.7-.6,4.3-.6c2,0,3.8.3,4.7,1.7.7,1,.7,2.4.7,3.6v4.6c0,.6,0,1.6,1.1,1.6.4,0,.7-.1.7-.1v2.2s-.7.2-1.7.2c-1.7,0-2.8-.6-3-2.4-.5,1.6-2,2.4-3.9,2.4-2.6,0-4.3-1.6-4.3-4,0-2.9,2.4-4.3,6.6-4.3h1.3c0-1.1,0-1.7-.4-2.2-.4-.6-1-.9-2.4-.9-1.9,0-3.6.7-3.6.7h-.2v-2.5h.1Zm3.9,10.8c.9,0,1.8-.4,2.3-1.3.4-.8.4-1.8.4-2.3v-.3h-.7c-1.4,0-3.8,0-3.8,2.1-.1,1.1.6,1.8,1.8,1.8Z"/>
    <path class="cls-1" d="m400,.5v19h-3.2V.5s3.2,0,3.2,0Z"/>
  </g>
  <g>
    <polygon class="cls-1" points="3.8 15.4 0 15.4 0 21.9 0 27.8 3.8 27.8 3.8 15.4"/>
    <polygon class="cls-1" points="8.2 15.4 8.2 21.9 8.2 27.8 12.1 27.8 12.1 15.4 8.2 15.4"/>
    <polygon class="cls-1" points="16.5 15.4 16.5 21.9 16.5 27.8 20.3 27.8 20.3 15.4 16.5 15.4"/>
    <polygon class="cls-1" points="0 13 14.3 13 28.6 13 28.6 9.5 0 9.5 0 13"/>
    <polygon class="cls-1" points="14.3 0 0 4.7 0 8.4 14.3 3.6 28.6 8.4 28.6 4.7 14.3 0"/>
    <path class="cls-1" d="m28.6,27.5c-.1.2-1.5,2.6-10.6,2.6h-7.4c-9.4.1-10.4,1.3-10.6,1.4v3.6c.2-.1,1.2-1.3,10.6-1.4h7.4c9.1,0,10.5-2.4,10.6-2.6v-3.6Z"/>
    <path class="cls-1" d="m28.6,33.4c-.1.2-1.5,2.6-10.6,2.6h-7.4c-9.4.1-10.4,1.3-10.6,1.4v3.6c.2-.1,1.2-1.3,10.6-1.4h7.4c9.1,0,10.5-2.4,10.6-2.6v-3.6Z"/>
    <path class="cls-1" d="m24.7,15.4v11.8c3.1-.7,3.8-1.8,3.8-2v-9.8h-3.8Z"/>
  </g>
</svg>