<?xml version="1.0" encoding="UTF-8"?>
<svg id="Layer_1" data-name="Layer 1" xmlns="http://www.w3.org/2000/svg" viewBox="0 0 270 265">
  <defs>
    <style>
      .cls-1 {
        fill: none;
        stroke: #009ca6;
        stroke-miterlimit: 10;
        stroke-width: 3px;
      }

      .cls-2 {
        fill: #012d5a;
        stroke-width: 0px;
      }
    </style>
  </defs>
  <g>
    <path class="cls-2" d="m16.18,127.09h13.52c-.09,1.81-.14,3.63-.14,5.46,0,29.85,12.46,56.84,32.45,76.05l.95-.95h0s12.29-12.29,12.29-12.29c15.58,14.85,36.64,23.99,59.82,23.99,45.03,0,82.15-34.47,86.39-78.4h-18.84c.34-2.76.54-5.56.54-8.4,0-33.28-24.01-61.05-55.62-66.92v5.28c28.72,5.8,50.42,31.24,50.42,61.65,0,34.68-28.21,62.89-62.89,62.89-17.01,0-32.45-6.8-43.78-17.8l9.55-9.55c8.88,8.56,20.95,13.84,34.23,13.84,27.23,0,49.38-22.15,49.38-49.38,0-3.94-.48-7.76-1.35-11.44h-5.36c.98,3.65,1.51,7.48,1.51,11.44,0,20.97-14.68,38.55-34.31,43.05v-14.02c12.08-4.12,20.79-15.58,20.79-29.03,0-12.27-7.24-22.87-17.67-27.77v5.88c7.46,4.45,12.47,12.59,12.47,21.89,0,12.45-8.97,22.83-20.79,25.03v18.9c-1.54.16-3.1.25-4.68.25-13.71,0-25.99-6.28-34.1-16.12l-1.03,1.03-12.23,12.23c-9.66-11.06-15.54-25.51-15.54-41.32,0-.67.03-1.33.05-1.99h-5.2c-.02.66-.05,1.32-.05,1.99,0,37.55,30.55,68.09,68.09,68.09,32.89,0,60.4-23.44,66.72-54.49h13.72c-6.5,38.54-40.09,68-80.45,68-23.6,0-44.89-10.08-59.8-26.16l-.79.79h0s-12.45,12.45-12.45,12.45c-16.9-17.96-27.27-42.13-27.27-68.69s10.39-50.76,27.32-68.73l9.57,9.57c-14.48,15.51-23.38,36.31-23.38,59.16,0,19.08,6.2,36.73,16.68,51.07l3.72-3.72c-9.56-13.36-15.2-29.7-15.2-47.35,0-23.28,9.82-44.3,25.51-59.18l-2.09-2.09-1.59-1.59-9.57-9.57c18.03-17.27,42.47-27.89,69.34-27.89s49.16,9.71,66.93,25.66l3.68-3.68c-18.11-16.34-41.9-26.51-68.01-27.14V8.36c-.86-.02-1.73-.03-2.6-.03C68.41,8.33,13.84,61.12,10.98,127.09h5.2ZM132.48,13.56v13.52c-53.41,1.3-97.11,42.48-102.38,94.83h-13.56C21.86,62.09,71.61,14.87,132.48,13.56Z"/>
    <path class="cls-2" d="m148.07,9v5.23c29.35,3.2,55.53,17.12,74.54,37.75l-9.55,9.55h0l-3.68,3.68c14.65,16.15,24.09,37.08,25.73,60.14h-13.57c-3.67-44.51-41.02-79.61-86.46-79.61-19.41,0-37.34,6.4-51.81,17.2l3.72,3.72c12.71-9.31,28.2-15.03,44.97-15.67v13.52c-31.92,1.45-58.16,24.98-63.82,55.63h19.14c-1.03,3.96-1.58,8.11-1.58,12.39,0,8.28,2.06,16.09,5.68,22.96l3.86-3.86c-2.78-5.78-4.35-12.26-4.35-19.1,0-23.49,18.43-42.75,41.58-44.1v13.55c-15.7,1.32-28.07,14.51-28.07,30.55,0,14.96,10.76,27.44,24.95,30.12v-5.31c-11.3-2.6-19.75-12.74-19.75-24.81,0-14.04,11.43-25.47,25.47-25.47.88,0,1.74.04,2.6.13v-18.75c15.37.9,28.66,9.69,35.85,22.37v-.11h5.82c-8.07-16.31-24.88-27.55-44.28-27.55-21.03,0-39.03,13.23-46.13,31.79h-14.25c7.63-26.15,31.81-45.31,60.38-45.31.7,0,1.39.03,2.08.05v-18.71c43.37,1.09,78.43,36.18,79.47,79.56h18.72c.01.66.05,1.32.05,1.99,0,55.31-45,100.32-100.32,100.32-23.16,0-44.5-7.89-61.5-21.12l-3.7,3.7c17.39,13.71,39.18,22.04,62.86,22.56v13.54c-62.91-1.22-114.01-51.48-116.58-114.06h-5.2c2.6,66.22,57.27,119.29,124.12,119.29s124.23-55.73,124.23-124.23c0-64.11-48.82-117.03-111.23-123.55Zm-10.14,242.54v-13.52c56.86-1.52,102.66-48.25,102.66-105.47,0-25.45-9.06-48.82-24.13-67.07l9.59-9.59c17.49,20.72,28.05,47.48,28.05,76.66,0,64.68-51.85,117.47-116.17,118.99Z"/>
  </g>
  <path class="cls-1" d="m3.7,132.35l18.06.26c.07,10.42,1.62,29.82,12.31,50.87,8.54,16.81,19.49,27.97,26.83,34.36,4.17-4.73,8.34-9.46,12.51-14.18,28.55,23.68,68.17,28.88,101.36,13.3,31.44-14.76,52.34-45.92,54.36-80.95-6.3-.21-12.59-.41-18.89-.62.22-4.72,1.07-32.62-20.6-54.8-18.38-18.82-40.95-21.24-46.8-21.69v18.65c4.37.33,16.48,1.8,27.89,11.09,11.75,9.56,15.59,21.56,16.72,25.75-6.07.31-12.14.63-18.21.94-1.57-2.99-4.68-7.99-10.3-12.43-6.21-4.91-12.43-6.74-15.81-7.48.2,12.2.41,24.4.61,36.6h-9.15v38.98c-3.31-.01-10.84-.49-18.73-5.19-7.67-4.57-11.64-10.71-13.27-13.6-4.92,4.23-9.84,8.46-14.76,12.69-2.45-4.27-5.35-10.34-7.3-18-2.12-8.33-2.37-15.57-2.15-20.73h-17.55c.66-6.47,2.44-16.24,7.61-27,5.77-12.01,13.27-20.08,18.29-24.7-4.05-4.16-8.09-8.32-12.14-12.47,5.67-4.81,28.5-23.06,62.66-22.64,36.13.44,59.32,21.45,64.39,26.28,4.45-4.14,8.91-8.28,13.36-12.42-6.75-6.76-18.12-16.51-34.55-23.98-14.97-6.81-28.49-9.15-37.62-10.01V1.57"/>
</svg>