<?xml version="1.0" encoding="UTF-8"?>
<svg id="Layer_1" data-name="Layer 1" xmlns="http://www.w3.org/2000/svg" viewBox="0 0 64 64">
  <defs>
    <style>
      .cls-1 {
        fill: #fff;
        stroke-width: 0px;
      }
    </style>
  </defs>
  <path class="cls-1" d="m60.3,26.68h-31.39c-2.15-5.62-7.58-9.63-13.96-9.63-8.26,0-14.95,6.69-14.95,14.95s6.69,14.95,14.95,14.95c6.38,0,11.81-4,13.96-9.63h4.58l2.63-5.32,2.63,5.32h3.55l2.63-5.32,2.63,5.32h3.82l2.63-5.32,2.63,5.32h3.34l4.05-3.7v-2.89l-3.7-4.05Zm-51.94,9.3c-2.2,0-3.98-1.78-3.98-3.98s1.78-3.98,3.98-3.98,3.98,1.78,3.98,3.98-1.78,3.98-3.98,3.98Z"/>
</svg>