<?xml version="1.0" encoding="utf-8"?>
<!-- Generator: Adobe Illustrator 27.9.3, SVG Export Plug-In . SVG Version: 9.03 Build 53313)  -->
<svg version="1.1" id="Layer_1" xmlns="http://www.w3.org/2000/svg" xmlns:xlink="http://www.w3.org/1999/xlink" x="0px" y="0px"
	 viewBox="0 0 800 800" style="enable-background:new 0 0 800 800;" xml:space="preserve">
<style type="text/css">
	.st0{fill:#FFFFFF;}
</style>
<path class="st0" d="M552,800H248c-49.5,0-76.8,0-102.5-13.1c-22.7-11.6-40.9-29.7-52.4-52.4C80,708.8,80,681.5,80,632V439.6
	c-13.8-0.7-25.1-2.6-36.3-8.4c-15.2-7.7-27.2-19.8-35-35C0,379.2,0,362,0,336v-72c0-26,0-43.2,8.7-60.3c7.7-15.2,19.8-27.2,35-35
	C60.8,160,78,160,104,160h42.7c-4.4-12.7-6.7-26.2-6.7-40c0-31.9,12.2-62,34.5-84.6C196.6,12.9,227.2,0,258.6,0
	c40.5,0,97.1,16.1,141.4,90.9C444.3,16.1,500.9,0,541.4,0c31.3,0,62,12.9,84.1,35.4C647.8,58,660,88.1,660,120
	c0,13.8-2.3,27.3-6.7,40H696c26,0,43.2,0,60.3,8.7c15.1,7.7,27.2,19.8,35,35C800,220.8,800,238,800,264v72c0,26,0,43.2-8.7,60.3
	c-7.7,15.1-19.8,27.2-35,35c-11.2,5.7-22.5,7.7-36.3,8.4V632c0,49.5,0,76.8-13.1,102.5c-11.6,22.7-29.7,40.9-52.4,52.4
	C628.8,800,601.5,800,552,800z M440,720h112c34.7,0,57.6,0,66.2-4.4c7.6-3.9,13.6-9.9,17.5-17.5c4.4-8.6,4.4-31.5,4.4-66.2V440H440
	V720z M160,440v192c0,34.7,0,57.6,4.4,66.2c3.9,7.6,9.9,13.6,17.5,17.5c8.6,4.4,31.5,4.4,66.2,4.4h112V440H160z M440,360h256
	c9.2,0,18.7,0,23.6-0.4c0.4-4.9,0.4-14.3,0.4-23.6v-72c0-9.2,0-18.7-0.4-23.6c-4.9-0.4-14.3-0.4-23.6-0.4H440V360z M80.4,359.6
	c4.9,0.4,14.3,0.4,23.6,0.4h256V240H104c-9.2,0-18.7,0-23.6,0.4C80,245.3,80,254.8,80,264v72C80,345.2,80,354.7,80.4,359.6z
	 M721.9,240.8C721.9,240.8,721.9,240.8,721.9,240.8C721.9,240.8,721.9,240.8,721.9,240.8z M78.1,240.8
	C78.1,240.8,78.1,240.8,78.1,240.8C78.1,240.8,78.1,240.8,78.1,240.8z M454.6,160h86.8c10.2,0,19.8-4.1,27-11.5
	c7.3-7.5,11.6-17.9,11.6-28.5c0-10.7-4.2-21.1-11.6-28.5c-7.3-7.4-16.9-11.5-27-11.5c-15.7,0-29.6,5.1-42.7,15.6
	c-12.1,9.7-23.3,23.8-33.3,42C461.3,145.1,457.7,152.7,454.6,160z M258.6,160h86.8c-3.1-7.3-6.7-14.9-10.8-22.4
	c-10-18.2-21.2-32.3-33.3-42c-13.1-10.5-27-15.6-42.7-15.6c-10.2,0-19.8,4.1-27,11.5c-7.3,7.5-11.6,17.9-11.6,28.5
	c0,10.7,4.2,21.1,11.6,28.5C238.8,155.9,248.4,160,258.6,160z"/>
</svg>
