<?xml version="1.0" encoding="utf-8"?>
<!-- Generator: Adobe Illustrator 27.9.3, SVG Export Plug-In . SVG Version: 9.03 Build 53313)  -->
<svg version="1.1" id="Layer_1" xmlns="http://www.w3.org/2000/svg" xmlns:xlink="http://www.w3.org/1999/xlink" x="0px" y="0px"
	 viewBox="0 0 165 165" style="enable-background:new 0 0 165 165;" xml:space="preserve">
<style type="text/css">
	.st0{fill:#FFFFFF;}
</style>
<g id="SVGRepo_bgCarrier">
</g>
<g id="SVGRepo_tracerCarrier">
</g>
<g id="SVGRepo_iconCarrier">
	<path class="st0" d="M164.7,153l-28.6-80c-2-5.3-6.5-8.5-11.7-8.5c-5.2,0-9.6,3.3-11.8,8.7L84.1,153c-1.3,3.7,0.6,7.8,4.3,9.2
		c3.7,1.3,7.8-0.6,9.2-4.3l5.9-16.6h41.6l5.9,16.6c1.1,3,3.8,4.8,6.8,4.8c0.8,0,1.6-0.1,2.4-0.4C164,160.9,165.9,156.8,164.7,153
		L164.7,153z M108.8,126.8l15.7-43.9l15.7,43.9H108.8z M84.4,42.7c-21.6,34.2-41.1,54.8-64.9,68.6c-1.1,0.7-2.4,1-3.5,1
		c-2.5,0-4.9-1.2-6.2-3.5c-2-3.4-0.9-7.8,2.6-9.8c20.1-11.7,36.6-28.4,55-56.2H7.2c-3.9,0-7.2-3.3-7.2-7.2c0-3.9,3.3-7.2,7.2-7.2
		h35.9V9.5c0-3.9,3.3-7.2,7.2-7.2c3.9,0,7.2,3.3,7.2,7.2v18.9h35.9c3.9,0,7.2,3.3,7.2,7.2c0,3.9-3.3,7.2-7.2,7.2L84.4,42.7
		L84.4,42.7z M84.8,112.3c-1.2,0-2.5-0.3-3.6-1c-6.2-3.6-12.2-7.7-17.9-11.9c-3.2-2.4-3.8-6.9-1.4-10c2.4-3.2,6.9-3.8,10-1.4
		c5.2,3.9,10.8,7.6,16.6,10.9c3.4,2,4.6,6.4,2.6,9.9C89.7,111.1,87.3,112.3,84.8,112.3z"/>
</g>
</svg>
