<?xml version="1.0" encoding="utf-8"?>
<!-- Generator: Adobe Illustrator 27.9.3, SVG Export Plug-In . SVG Version: 9.03 Build 53313)  -->
<svg version="1.1" id="Layer_1" xmlns="http://www.w3.org/2000/svg" xmlns:xlink="http://www.w3.org/1999/xlink" x="0px" y="0px"
	 viewBox="0 0 165 165" style="enable-background:new 0 0 165 165;" xml:space="preserve">
<style type="text/css">
	.st0{fill:#FFFFFF;}
</style>
<g id="SVGRepo_bgCarrier">
</g>
<g id="SVGRepo_tracerCarrier">
</g>
<g id="SVGRepo_iconCarrier">
	<path class="st0" d="M82.5,165c-2.1,0-4.2-0.4-6.2-1.2c-2-0.8-3.7-2-5.2-3.5L4.6,93.8c-1.5-1.5-2.7-3.3-3.5-5.2
		c-0.8-2-1.2-4.1-1.2-6.2c0-2.1,0.4-4.2,1.2-6.2c0.8-2,2-3.7,3.5-5.2L71.1,4.6C74.2,1.6,78.2,0,82.5,0s8.3,1.6,11.4,4.6L160.4,71
		c1.5,1.5,2.7,3.3,3.5,5.2c0.8,2,1.2,4.1,1.2,6.2c0,2.1-0.4,4.2-1.2,6.2c-0.8,2-2,3.7-3.5,5.2l-66.4,66.4c-1.5,1.5-3.3,2.7-5.2,3.5
		C86.7,164.6,84.6,165,82.5,165z M82.5,13.2c-0.4,0-0.7,0.1-1,0.2c-0.3,0.1-0.6,0.3-0.8,0.6L14.1,80.5c-0.3,0.2-0.5,0.5-0.6,0.9
		s-0.2,0.7-0.2,1c0,0.4,0.1,0.7,0.2,1c0.1,0.3,0.3,0.6,0.6,0.9l66.5,66.5c0.2,0.3,0.5,0.6,0.8,0.7c0.3,0.2,0.7,0.3,1.1,0.3
		c0.4,0,0.7-0.1,1.1-0.3c0.3-0.2,0.6-0.4,0.8-0.7l66.5-66.5c0.3-0.2,0.5-0.5,0.6-0.9c0.1-0.3,0.2-0.7,0.2-1c0-0.4-0.1-0.7-0.2-1
		c-0.1-0.3-0.3-0.6-0.6-0.9L84.4,14c-0.2-0.3-0.5-0.5-0.8-0.6C83.2,13.3,82.9,13.2,82.5,13.2z"/>
	<path class="st0" d="M93.8,104c-0.9,0-1.8-0.2-2.6-0.5c-0.8-0.3-1.5-0.8-2.2-1.5c-1.3-1.3-2-3-2-4.7c0-1.8,0.7-3.5,2-4.7l15.2-15
		l-15.2-15c-0.7-0.6-1.2-1.4-1.6-2.2c-0.4-0.8-0.6-1.7-0.6-2.6c0-0.9,0.1-1.8,0.5-2.6c0.3-0.8,0.8-1.6,1.5-2.2
		c0.6-0.6,1.4-1.1,2.2-1.5c0.8-0.3,1.7-0.5,2.6-0.5c0.9,0,1.8,0.2,2.6,0.6s1.6,0.9,2.2,1.6l19.6,19.7c0.6,0.6,1.1,1.4,1.5,2.2
		c0.3,0.8,0.5,1.7,0.5,2.6c0,0.9-0.2,1.8-0.5,2.6c-0.3,0.8-0.8,1.6-1.5,2.2l-19.6,19.6c-0.6,0.6-1.4,1.1-2.2,1.5
		C95.6,103.8,94.7,104,93.8,104z"/>
	<path class="st0" d="M51.3,109.2c-1.8,0-3.5-0.7-4.7-2c-1.3-1.3-2-2.9-2-4.7V77.6c0-1.8,0.7-3.5,2-4.7c1.3-1.3,2.9-2,4.7-2h62.5
		c1.8,0,3.5,0.7,4.7,2c1.3,1.3,2,3,2,4.7c0,1.8-0.7,3.5-2,4.7c-1.3,1.3-3,2-4.7,2H57.9v17.9c0,0.9-0.1,1.8-0.4,2.7
		c-0.3,0.8-0.8,1.6-1.4,2.3c-0.6,0.7-1.4,1.2-2.2,1.5C53.1,109,52.2,109.2,51.3,109.2z"/>
</g>
</svg>
