<?xml version="1.0" encoding="utf-8"?>
<!-- Generator: Adobe Illustrator 27.9.3, SVG Export Plug-In . SVG Version: 9.03 Build 53313)  -->
<svg version="1.1" id="Layer_1" xmlns="http://www.w3.org/2000/svg" xmlns:xlink="http://www.w3.org/1999/xlink" x="0px" y="0px"
	 viewBox="0 0 165 165" style="enable-background:new 0 0 165 165;" xml:space="preserve">
<style type="text/css">
	.st0{fill:#FFFFFF;}
</style>
<g id="SVGRepo_bgCarrier">
</g>
<g id="SVGRepo_tracerCarrier">
</g>
<g id="SVGRepo_iconCarrier">
	<path class="st0" d="M129.6,66h-2.4V44.8c0-11.9-4.7-23.3-13.1-31.7C105.8,4.7,94.4,0,82.5,0S59.2,4.7,50.8,13.1
		c-8.4,8.4-13.1,19.8-13.1,31.7V66h-2.4c-6.9,0-13.5,2.7-18.3,7.6c-4.9,4.9-7.6,11.5-7.6,18.3v47.1c0,6.9,2.7,13.5,7.6,18.3
		c4.9,4.9,11.5,7.6,18.3,7.6h94.3c6.9,0,13.5-2.7,18.3-7.6c4.9-4.9,7.6-11.5,7.6-18.3V91.9c0-6.9-2.7-13.5-7.6-18.3
		C143.1,68.7,136.5,66,129.6,66z M51.9,44.8c0-8.1,3.2-15.9,9-21.7c5.7-5.7,13.5-9,21.7-9s15.9,3.2,21.7,9c5.7,5.7,9,13.5,9,21.7V66
		H51.9V44.8z M141.4,139.1c0,3.1-1.2,6.1-3.5,8.3c-2.2,2.2-5.2,3.5-8.3,3.5H35.4c-3.1,0-6.1-1.2-8.3-3.5c-2.2-2.2-3.5-5.2-3.5-8.3
		V91.9c0-3.1,1.2-6.1,3.5-8.3s5.2-3.5,8.3-3.5h94.3c3.1,0,6.1,1.2,8.3,3.5c2.2,2.2,3.5,5.2,3.5,8.3V139.1z"/>
</g>
</svg>
