<svg width="28" height="30" viewBox="0 0 28 30" fill="none" xmlns="http://www.w3.org/2000/svg">
<path fill-rule="evenodd" clip-rule="evenodd" d="M27.9999 27.1309V17.4047H25.9999V27.1309H16.4999V29.1785H25.9999V29.1785H27.9999V29.1785V27.1309Z" fill="white"/>
<path fill-rule="evenodd" clip-rule="evenodd" d="M27.9999 2.04764V11.7738H25.9999V2.04764H16.4999V1.76863e-05H25.9999V0H27.9999V1.76863e-05V2.04764Z" fill="white"/>
<path fill-rule="evenodd" clip-rule="evenodd" d="M-2.86102e-05 27.1309V17.4047H1.99998V27.1309H11.5V29.1785H1.99998V29.1785H-2.86102e-05V29.1785V27.1309Z" fill="white"/>
<path fill-rule="evenodd" clip-rule="evenodd" d="M-2.86102e-05 2.04764V11.7738H1.99998V2.04764H11.5V1.76863e-05H1.99998V0H-2.86102e-05V1.76863e-05V2.04764Z" fill="white"/>
<rect x="5" y="5" width="18" height="19" fill="white"/>
</svg>
