<?xml version="1.0" encoding="UTF-8"?>
<svg id="Layer_1" data-name="Layer 1" xmlns="http://www.w3.org/2000/svg" viewBox="0 0 64.62 249.35">
  <defs>
    <style>
      .cls-1 {
        stroke-width: 0px;
      }
    </style>
  </defs>
  <g>
    <path class="cls-1" d="m.5,219.63V56.02L32.27,1l31.77,55.02v163.61H.5ZM55.67,57.35c-6.16,1.15-12.48,1.85-18.76,2.08l-.48.02v152.18h19.84V57.24l-.59.11ZM8.27,211.63h19.84V59.45l-.48-.02c-6.28-.23-12.59-.93-18.76-2.08l-.59-.11v154.38ZM14.96,45.83l.59.19c5.42,1.71,11.04,2.57,16.71,2.57h.52c5.49-.05,10.94-.92,16.19-2.57l.59-.19-11.85-20.53-.41.17c-1.61.68-3.31,1.03-5.05,1.03-.14,0-.29,0-.43,0-1.59-.05-3.14-.4-4.6-1.02l-.41-.17-11.85,20.53Z"/>
    <path class="cls-1" d="m32.27,2l16.56,28.68,14.71,25.47v162.98s-62.53,0-62.53,0V56.16L32.27,2m0,47.09h.53c5.54-.05,11.04-.93,16.33-2.6l1.19-.37-.62-1.08-11.32-19.61-.44-.76-.81.34c-1.55.65-3.18.99-4.85.99-.14,0-.28,0-.42,0-1.52-.05-3.01-.38-4.43-.98l-.81-.34-.44.77-6.22,10.77-5.1,8.84-.62,1.08,1.19.37c5.47,1.72,11.14,2.6,16.86,2.6m3.66,163.04h20.84V57.84s0-1.2,0-1.2l-1.18.22c-6.14,1.15-12.43,1.84-18.69,2.07l-.96.04v153.16m-28.15,0h20.84V59.93s0-.96,0-.96l-.96-.04c-6.26-.23-12.55-.92-18.69-2.07l-1.18-.22v154.49s0,1,0,1M32.27,0L0,55.88H0S0,220.13,0,220.13h64.53s0-164.25,0-164.25h0s0,0,0,0C53.78,37.25,43.02,18.63,32.27,0h0Zm0,26.99c2.36,0,4.2-.63,5.24-1.07,3.77,6.54,7.55,13.07,11.32,19.61-3.81,1.2-9.32,2.48-16.04,2.55-.17,0-.35,0-.52,0-6.99,0-12.69-1.33-16.56-2.55,3.77-6.54,7.55-13.07,11.32-19.61,1.03.44,2.68.99,4.78,1.06.15,0,.3,0,.45,0h0Zm4.66,184.13V59.93c7-.25,13.32-1.06,18.84-2.09v153.28h-18.84Zm-28.15,0V57.84c5.51,1.03,11.83,1.83,18.84,2.09v151.2H8.77Z"/>
  </g>
  <path class="cls-1" d="m0,224.16v12.6c0,6.96,4.34,12.6,9.69,12.6h45.16c5.35,0,9.69-5.64,9.69-12.6v-12.6H0Zm55.76,12.46h0c0,3.35-3.16,6.07-7.05,6.07H15.83c-3.9,0-7.05-2.72-7.05-6.07v-6.07h46.99v6.07Z"/>
</svg>