<svg width="24" height="32" viewBox="0 0 24 32" xmlns="http://www.w3.org/2000/svg">
<g clip-path="url(#clip0_223_112)">
<path d="M21.77 11.64C21.77 16.42 14.4 26.55 12.23 29.42C11.93 29.82 11.34 29.82 11.04 29.42C8.87 26.54 1.5 16.41 1.5 11.64C1.5 6.04 6.04 1.5 11.64 1.5C17.24 1.5 21.78 6.04 21.78 11.64H21.77Z" stroke="#012D5A" stroke-width="3" stroke-miterlimit="10" fill="white"/>
<path d="M11.64 15.06C13.5288 15.06 15.06 13.5288 15.06 11.64C15.06 9.75116 13.5288 8.21997 11.64 8.21997C9.75119 8.21997 8.22 9.75116 8.22 11.64C8.22 13.5288 9.75119 15.06 11.64 15.06Z" fill="#012D5A"/>
</g>
<defs>
<clipPath id="clip0_223_112">
<rect width="23.27" height="31.22" fill="white"/>
</clipPath>
</defs>
</svg>
